<mxfile host="www.draw.io" modified="2019-12-27T04:16:55.741Z" agent="Mozilla/5.0 (Windows NT 10.0; Win64; x64) AppleWebKit/537.36 (KHTML, like Gecko) Chrome/79.0.3945.88 Safari/537.36" etag="btlRGaaRkKaSFIboilHl" version="12.4.3" type="github" pages="1">
  <diagram id="O3OJAl31m8UNN3KJI1TL" name="Page-1">
    <mxGraphModel dx="974" dy="588" grid="1" gridSize="10" guides="1" tooltips="1" connect="1" arrows="1" fold="1" page="1" pageScale="1" pageWidth="827" pageHeight="1169" math="0" shadow="0">
      <root>
        <mxCell id="0"/>
        <mxCell id="1" parent="0"/>
        <mxCell id="z7A5kAYE_Lk59zN1APNB-1" value="" style="rounded=1;whiteSpace=wrap;html=1;" parent="1" vertex="1">
          <mxGeometry x="210" y="170" width="50" height="390" as="geometry"/>
        </mxCell>
        <mxCell id="z7A5kAYE_Lk59zN1APNB-3" value="OS" style="rounded=0;whiteSpace=wrap;html=1;" parent="1" vertex="1">
          <mxGeometry x="220" y="180" width="30" height="60" as="geometry"/>
        </mxCell>
        <mxCell id="z7A5kAYE_Lk59zN1APNB-4" value="" style="shape=umlActor;verticalLabelPosition=bottom;labelBackgroundColor=#ffffff;verticalAlign=top;html=1;outlineConnect=0;" parent="1" vertex="1">
          <mxGeometry x="320" y="170" width="20" height="30" as="geometry"/>
        </mxCell>
        <mxCell id="z7A5kAYE_Lk59zN1APNB-10" value="" style="fontColor=#0066CC;verticalAlign=top;verticalLabelPosition=bottom;labelPosition=center;align=center;html=1;outlineConnect=0;fillColor=#CCCCCC;strokeColor=#6881B3;gradientColor=none;gradientDirection=north;strokeWidth=2;shape=mxgraph.networks.pc;" parent="1" vertex="1">
          <mxGeometry x="270" y="160" width="40" height="30" as="geometry"/>
        </mxCell>
        <mxCell id="z7A5kAYE_Lk59zN1APNB-11" value="ブラウザ" style="rounded=0;whiteSpace=wrap;html=1;" parent="1" vertex="1">
          <mxGeometry x="220" y="270" width="30" height="60" as="geometry"/>
        </mxCell>
        <mxCell id="z7A5kAYE_Lk59zN1APNB-12" value="ブラウザドライバ" style="rounded=0;whiteSpace=wrap;html=1;" parent="1" vertex="1">
          <mxGeometry x="220" y="370" width="30" height="60" as="geometry"/>
        </mxCell>
        <mxCell id="z7A5kAYE_Lk59zN1APNB-13" value="WebDriverクライアント" style="rounded=0;whiteSpace=wrap;html=1;" parent="1" vertex="1">
          <mxGeometry x="220" y="469" width="30" height="60" as="geometry"/>
        </mxCell>
        <mxCell id="z7A5kAYE_Lk59zN1APNB-14" value="" style="edgeStyle=segmentEdgeStyle;endArrow=classic;html=1;exitX=0.5;exitY=1;exitDx=0;exitDy=0;exitPerimeter=0;entryX=1;entryY=0.5;entryDx=0;entryDy=0;" parent="1" source="z7A5kAYE_Lk59zN1APNB-10" target="z7A5kAYE_Lk59zN1APNB-3" edge="1">
          <mxGeometry width="50" height="50" relative="1" as="geometry">
            <mxPoint x="305" y="290" as="sourcePoint"/>
            <mxPoint x="355" y="240" as="targetPoint"/>
            <Array as="points">
              <mxPoint x="290" y="210"/>
            </Array>
          </mxGeometry>
        </mxCell>
        <mxCell id="z7A5kAYE_Lk59zN1APNB-15" value="" style="endArrow=classic;html=1;exitX=0.5;exitY=1;exitDx=0;exitDy=0;entryX=0.5;entryY=0;entryDx=0;entryDy=0;" parent="1" source="z7A5kAYE_Lk59zN1APNB-3" target="z7A5kAYE_Lk59zN1APNB-11" edge="1">
          <mxGeometry width="50" height="50" relative="1" as="geometry">
            <mxPoint x="310" y="260" as="sourcePoint"/>
            <mxPoint x="340" y="270" as="targetPoint"/>
          </mxGeometry>
        </mxCell>
        <mxCell id="z7A5kAYE_Lk59zN1APNB-16" value="" style="endArrow=classic;html=1;entryX=0.5;entryY=1;entryDx=0;entryDy=0;exitX=0.5;exitY=0;exitDx=0;exitDy=0;" parent="1" source="z7A5kAYE_Lk59zN1APNB-12" target="z7A5kAYE_Lk59zN1APNB-11" edge="1">
          <mxGeometry width="50" height="50" relative="1" as="geometry">
            <mxPoint x="245" y="280" as="sourcePoint"/>
            <mxPoint x="245" y="250" as="targetPoint"/>
          </mxGeometry>
        </mxCell>
        <mxCell id="z7A5kAYE_Lk59zN1APNB-18" value="" style="endArrow=classic;html=1;entryX=0.5;entryY=1;entryDx=0;entryDy=0;exitX=0.5;exitY=0;exitDx=0;exitDy=0;" parent="1" source="z7A5kAYE_Lk59zN1APNB-13" target="z7A5kAYE_Lk59zN1APNB-12" edge="1">
          <mxGeometry width="50" height="50" relative="1" as="geometry">
            <mxPoint x="245" y="380" as="sourcePoint"/>
            <mxPoint x="245" y="340" as="targetPoint"/>
          </mxGeometry>
        </mxCell>
        <mxCell id="z7A5kAYE_Lk59zN1APNB-19" value="Chrome" style="text;html=1;strokeColor=none;fillColor=none;align=center;verticalAlign=middle;whiteSpace=wrap;rounded=0;" parent="1" vertex="1">
          <mxGeometry x="270" y="290" width="40" height="20" as="geometry"/>
        </mxCell>
        <mxCell id="z7A5kAYE_Lk59zN1APNB-20" value="" style="rounded=1;whiteSpace=wrap;html=1;" parent="1" vertex="1">
          <mxGeometry x="430" y="170" width="50" height="390" as="geometry"/>
        </mxCell>
        <mxCell id="z7A5kAYE_Lk59zN1APNB-21" value="OS" style="rounded=0;whiteSpace=wrap;html=1;" parent="1" vertex="1">
          <mxGeometry x="440" y="180" width="30" height="60" as="geometry"/>
        </mxCell>
        <mxCell id="z7A5kAYE_Lk59zN1APNB-22" value="" style="shape=umlActor;verticalLabelPosition=bottom;labelBackgroundColor=#ffffff;verticalAlign=top;html=1;outlineConnect=0;" parent="1" vertex="1">
          <mxGeometry x="540" y="170" width="20" height="30" as="geometry"/>
        </mxCell>
        <mxCell id="z7A5kAYE_Lk59zN1APNB-23" value="" style="fontColor=#0066CC;verticalAlign=top;verticalLabelPosition=bottom;labelPosition=center;align=center;html=1;outlineConnect=0;fillColor=#CCCCCC;strokeColor=#6881B3;gradientColor=none;gradientDirection=north;strokeWidth=2;shape=mxgraph.networks.pc;" parent="1" vertex="1">
          <mxGeometry x="490" y="160" width="40" height="30" as="geometry"/>
        </mxCell>
        <mxCell id="z7A5kAYE_Lk59zN1APNB-24" value="ブラウザ" style="rounded=0;whiteSpace=wrap;html=1;" parent="1" vertex="1">
          <mxGeometry x="440" y="270" width="30" height="60" as="geometry"/>
        </mxCell>
        <mxCell id="z7A5kAYE_Lk59zN1APNB-25" value="ブラウザドライバ" style="rounded=0;whiteSpace=wrap;html=1;" parent="1" vertex="1">
          <mxGeometry x="440" y="370" width="30" height="60" as="geometry"/>
        </mxCell>
        <mxCell id="z7A5kAYE_Lk59zN1APNB-26" value="WebDriverクライアント" style="rounded=0;whiteSpace=wrap;html=1;" parent="1" vertex="1">
          <mxGeometry x="440" y="469" width="30" height="60" as="geometry"/>
        </mxCell>
        <mxCell id="z7A5kAYE_Lk59zN1APNB-27" value="" style="edgeStyle=segmentEdgeStyle;endArrow=classic;html=1;exitX=0.5;exitY=1;exitDx=0;exitDy=0;exitPerimeter=0;entryX=1;entryY=0.5;entryDx=0;entryDy=0;" parent="1" source="z7A5kAYE_Lk59zN1APNB-23" target="z7A5kAYE_Lk59zN1APNB-21" edge="1">
          <mxGeometry width="50" height="50" relative="1" as="geometry">
            <mxPoint x="525" y="290" as="sourcePoint"/>
            <mxPoint x="575" y="240" as="targetPoint"/>
            <Array as="points">
              <mxPoint x="510" y="210"/>
            </Array>
          </mxGeometry>
        </mxCell>
        <mxCell id="z7A5kAYE_Lk59zN1APNB-28" value="" style="endArrow=classic;html=1;exitX=0.5;exitY=1;exitDx=0;exitDy=0;entryX=0.5;entryY=0;entryDx=0;entryDy=0;" parent="1" source="z7A5kAYE_Lk59zN1APNB-21" target="z7A5kAYE_Lk59zN1APNB-24" edge="1">
          <mxGeometry width="50" height="50" relative="1" as="geometry">
            <mxPoint x="530" y="260" as="sourcePoint"/>
            <mxPoint x="550" y="270" as="targetPoint"/>
          </mxGeometry>
        </mxCell>
        <mxCell id="z7A5kAYE_Lk59zN1APNB-29" value="" style="endArrow=classic;html=1;entryX=0.5;entryY=1;entryDx=0;entryDy=0;exitX=0.5;exitY=0;exitDx=0;exitDy=0;" parent="1" source="z7A5kAYE_Lk59zN1APNB-25" target="z7A5kAYE_Lk59zN1APNB-24" edge="1">
          <mxGeometry width="50" height="50" relative="1" as="geometry">
            <mxPoint x="465" y="280" as="sourcePoint"/>
            <mxPoint x="465" y="250" as="targetPoint"/>
          </mxGeometry>
        </mxCell>
        <mxCell id="z7A5kAYE_Lk59zN1APNB-30" value="" style="endArrow=classic;html=1;entryX=0.5;entryY=1;entryDx=0;entryDy=0;exitX=0.5;exitY=0;exitDx=0;exitDy=0;" parent="1" source="z7A5kAYE_Lk59zN1APNB-26" target="z7A5kAYE_Lk59zN1APNB-25" edge="1">
          <mxGeometry width="50" height="50" relative="1" as="geometry">
            <mxPoint x="465" y="380" as="sourcePoint"/>
            <mxPoint x="465" y="340" as="targetPoint"/>
          </mxGeometry>
        </mxCell>
        <mxCell id="z7A5kAYE_Lk59zN1APNB-31" value="FireFox" style="text;html=1;strokeColor=none;fillColor=none;align=center;verticalAlign=middle;whiteSpace=wrap;rounded=0;" parent="1" vertex="1">
          <mxGeometry x="490" y="290" width="40" height="20" as="geometry"/>
        </mxCell>
        <mxCell id="z7A5kAYE_Lk59zN1APNB-32" value="" style="endArrow=none;html=1;entryX=0;entryY=0.5;entryDx=0;entryDy=0;" parent="1" target="z7A5kAYE_Lk59zN1APNB-25" edge="1">
          <mxGeometry width="50" height="50" relative="1" as="geometry">
            <mxPoint x="390" y="460" as="sourcePoint"/>
            <mxPoint x="260" y="580" as="targetPoint"/>
          </mxGeometry>
        </mxCell>
        <mxCell id="z7A5kAYE_Lk59zN1APNB-33" value="" style="endArrow=none;html=1;entryX=1;entryY=0.5;entryDx=0;entryDy=0;" parent="1" target="z7A5kAYE_Lk59zN1APNB-12" edge="1">
          <mxGeometry width="50" height="50" relative="1" as="geometry">
            <mxPoint x="310" y="460" as="sourcePoint"/>
            <mxPoint x="450" y="410" as="targetPoint"/>
          </mxGeometry>
        </mxCell>
        <mxCell id="z7A5kAYE_Lk59zN1APNB-34" value="WebDriver&lt;br&gt;（仕様）" style="text;html=1;strokeColor=none;fillColor=none;align=center;verticalAlign=middle;whiteSpace=wrap;rounded=0;" parent="1" vertex="1">
          <mxGeometry x="310" y="440" width="90" height="41" as="geometry"/>
        </mxCell>
      </root>
    </mxGraphModel>
  </diagram>
</mxfile>
